<?xml version="1.0" encoding="utf-8"?>
<!-- Generator: Adobe Illustrator 18.0.0, SVG Export Plug-In . SVG Version: 6.00 Build 0)  -->
<!DOCTYPE svg PUBLIC "-//W3C//DTD SVG 1.1//EN" "http://www.w3.org/Graphics/SVG/1.1/DTD/svg11.dtd">
<svg version="1.1" xmlns="http://www.w3.org/2000/svg" xmlns:xlink="http://www.w3.org/1999/xlink" x="0px" y="0px"
	 viewBox="0 0 60 60" enable-background="new 0 0 60 60" xml:space="preserve">
<g id="Layer_1">
	<title></title>
	<desc></desc>
	<g id="People">
		<path id="field-football" d="M55,34c0.6,0,1-0.4,1-1s-0.4-1-1-1h-2c-0.6,0-1,0.4-1,1v10c0,0.6,0.4,1,1,1h2c0.6,0,1-0.4,1-1
			s-0.4-1-1-1h-1v-8H55z M55,26H45c-0.6,0-1,0.4-1,1v22c0,0.6,0.4,1,1,1h10c0.6,0,1-0.4,1-1s-0.4-1-1-1h-9V28h9c0.6,0,1-0.4,1-1
			S55.6,26,55,26L55,26z M5,42c-0.6,0-1,0.4-1,1s0.4,1,1,1h2c0.6,0,1-0.4,1-1V33c0-0.6-0.4-1-1-1H5c-0.6,0-1,0.4-1,1s0.4,1,1,1h1v8
			H5z M5,50h10c0.6,0,1-0.4,1-1V27c0-0.6-0.4-1-1-1H5c-0.6,0-1,0.4-1,1s0.4,1,1,1h9v20H5c-0.6,0-1,0.4-1,1S4.4,50,5,50L5,50z
			 M20.9,8L24.1,9L29,5.5V2.1C25.4,2.4,22.3,4.8,20.9,8L20.9,8z M31,2.1v3.4L35.9,9L39.1,8C37.7,4.8,34.7,2.4,31,2.1L31,2.1z M40,12
			c0-0.7-0.1-1.4-0.2-2.1l-3.3,1.1l-1.9,5.9l2,2.6C38.7,17.6,40,15,40,12L40,12z M30,22c1.8,0,3.5-0.5,5-1.4L33,18h-6l-2,2.6
			C26.5,21.5,28.2,22,30,22L30,22z M25.5,10.5l1.7,5.5h5.6l1.7-5.5L30,7.2L25.5,10.5z M23.4,19.5l2-2.6l-1.9-5.9l-3.3-1.1
			C20.1,10.6,20,11.3,20,12C20,15,21.3,17.6,23.4,19.5L23.4,19.5z M18,12c0-1.3,0.2-2.5,0.6-3.7c0,0,0,0,0,0c0,0,0,0,0,0
			C20.2,3.5,24.7,0,30,0c5.3,0,9.8,3.5,11.4,8.3c0,0,0,0,0,0c0,0,0,0,0,0C41.8,9.5,42,10.7,42,12c0,3.9-1.9,7.4-4.9,9.6
			c0,0,0,0,0,0.1c0,0-0.1,0-0.1,0c-2,1.4-4.4,2.3-7,2.3c-2.6,0-5-0.8-7-2.3c0,0-0.1,0-0.1,0c0,0,0,0-0.1-0.1
			C19.9,19.4,18,15.9,18,12L18,12z M60,21v34c0,2.8-2.2,5-5,5H5c-2.8,0-5-2.2-5-5V21c0-2.8,2.2-5,5-5h11c0.6,0,1,0.4,1,1s-0.4,1-1,1
			H5c-1.7,0-3,1.3-3,3v34c0,1.7,1.3,3,3,3h50c1.7,0,3-1.3,3-3V21c0-1.7-1.3-3-3-3H44c-0.6,0-1-0.4-1-1s0.4-1,1-1h11
			C57.8,16,60,18.2,60,21L60,21z"/>
	</g>
</g>
<g id="Cup">
	<path id="cup" d="M34.8,45c-0.6,1-1.2,2-1.9,3c-0.2,0.2-0.4,0.3-0.7,0.3c-0.2,0-0.4-0.1-0.5-0.2c-0.4-0.3-0.5-0.8-0.2-1.2
		c2.7-3.5,5.1-8.3,5.2-19.2H23.3c0.1,10.9,2.6,15.6,5.2,19.2c0.3,0.4,0.2,0.9-0.2,1.2c-0.4,0.3-0.9,0.2-1.2-0.2
		c-0.7-1-1.4-1.9-1.9-3c-4.4-0.2-8-3.9-8-8.4c0-1.1,0.2-2.2,0.6-3.2c0.4-1,1-1.9,1.8-2.7c0.3-0.3,0.9-0.3,1.2,0
		c0.3,0.3,0.3,0.9,0,1.2c-0.6,0.6-1.1,1.4-1.5,2.2c-0.3,0.8-0.5,1.7-0.5,2.6c0,3.2,2.3,5.9,5.3,6.6c-1.9-4.3-2.7-9.3-2.7-16.2
		c0-0.5,0.4-0.9,0.9-0.9h15.1c0.5,0,0.9,0.4,0.9,0.9c0,6.9-0.8,12-2.7,16.2c3-0.6,5.3-3.3,5.3-6.6c0-0.9-0.2-1.8-0.5-2.6
		c-0.3-0.8-0.8-1.5-1.5-2.2c-0.3-0.3-0.3-0.9,0-1.2c0.3-0.3,0.9-0.3,1.2,0c0.8,0.8,1.4,1.7,1.8,2.7c0.4,1,0.6,2.1,0.6,3.2
		C42.8,41.1,39.2,44.8,34.8,45z M23.7,55c0,0.5,0.4,0.9,0.9,0.9h10.8c0.5,0,0.9-0.4,0.9-0.9c0-0.5-0.4-0.9-0.9-0.9H24.6
		C24.1,54.1,23.7,54.5,23.7,55z M33.2,51.6c0.5,0,0.9-0.4,0.9-0.9c0-0.5-0.4-0.9-0.9-0.9h-6.5c-0.5,0-0.9,0.4-0.9,0.9
		c0,0.5,0.4,0.9,0.9,0.9H33.2z"/>
</g>
<g id="Layer_2" display="none">
	<g display="inline">
		<path d="M32.3,32c0.3,0.1,0.7,0,0.7-0.1c0-0.1-0.1-0.4-0.4-0.6c-0.4-0.2-0.9,0-0.9,0S31.9,31.8,32.3,32z"/>
		<path d="M33.3,34.6c0.1,0,0.2-0.4,0-0.7c-0.3-0.4-0.8-0.5-0.8-0.5s-0.1,0.5,0.2,0.9C32.9,34.7,33.3,34.7,33.3,34.6z"/>
		<path d="M33.6,33.3c-0.1-0.8-0.4-1.5-0.8-2.1c0,0,0,0,0,0c0.1,0,0.4-0.2,0.4-0.5c0.1-0.5-0.2-0.9-0.2-0.9s-0.4,0.3-0.5,0.8
			c0,0.2,0,0.3,0.1,0.4c-0.2-0.2-0.4-0.4-0.7-0.6c0.1,0,0.1,0,0.2,0c0.1,0,0.2-0.3,0-0.6c-0.2-0.4-0.6-0.5-0.6-0.5s-0.1,0.4,0.1,0.8
			c0,0,0.1,0.1,0.1,0.1c-0.1-0.1-0.2-0.1-0.3-0.1c0-0.1-0.2-0.3-0.4-0.4c-0.4-0.1-0.8,0.1-0.8,0.1s0.2,0.4,0.6,0.5
			c0.2,0.1,0.4,0,0.5-0.1c0.1,0.1,0.2,0.1,0.4,0.2c0,0,0,0-0.1,0c-0.4,0-0.7,0.4-0.7,0.4s0.3,0.3,0.7,0.3c0.3,0,0.4-0.2,0.5-0.3
			c0.7,0.6,1.1,1.3,1.3,2.2c0-0.1-0.1-0.2-0.2-0.3c-0.3-0.3-0.9-0.3-0.9-0.3s0,0.5,0.4,0.9c0.3,0.3,0.6,0.2,0.7,0.1c0,0,0-0.1,0-0.2
			c0,0.2,0,0.3,0,0.5c0,0.8-0.2,1.5-0.6,2.1c0.1-0.2,0.1-0.4-0.1-0.7c-0.3-0.5-0.9-0.7-0.9-0.7s-0.2,0.6,0.1,1.1
			c0.2,0.4,0.6,0.4,0.7,0.4c-0.6,0.9-1.6,1.5-2.8,1.6l0,0c0,0,0,0,0,0c0,0,0,0,0,0l0,0c-1.2-0.1-2.2-0.7-2.8-1.6
			c0.1,0,0.5,0,0.7-0.4c0.3-0.5,0.1-1.1,0.1-1.1s-0.6,0.2-0.9,0.7C27,35.3,27,35.6,27,35.7c-0.4-0.6-0.6-1.3-0.6-2.1
			c0-0.2,0-0.4,0-0.5c0,0.1,0,0.2,0,0.2c0.1,0.1,0.4,0.1,0.7-0.1c0.3-0.3,0.4-0.9,0.4-0.9s-0.5,0-0.9,0.3c-0.1,0.1-0.2,0.2-0.2,0.3
			c0.2-0.9,0.6-1.6,1.3-2.2c0,0.1,0.2,0.3,0.5,0.3c0.4,0,0.7-0.3,0.7-0.3s-0.3-0.3-0.7-0.4c0,0-0.1,0-0.1,0c0.1-0.1,0.2-0.1,0.4-0.2
			c0.1,0.1,0.3,0.2,0.5,0.1c0.4-0.1,0.6-0.5,0.6-0.5s-0.4-0.2-0.8-0.1c-0.2,0.1-0.4,0.3-0.4,0.4c-0.1,0-0.2,0.1-0.3,0.1
			c0,0,0.1-0.1,0.1-0.1c0.2-0.4,0.1-0.8,0.1-0.8s-0.4,0.1-0.6,0.5c-0.1,0.3,0,0.5,0,0.6c0,0,0.1,0,0.2,0c-0.2,0.2-0.5,0.4-0.7,0.6
			c0.1-0.1,0.1-0.3,0.1-0.4c-0.1-0.5-0.5-0.8-0.5-0.8s-0.3,0.4-0.2,0.9c0,0.4,0.4,0.5,0.4,0.5c0,0,0,0,0,0c-0.5,0.6-0.8,1.3-0.8,2.1
			c0-0.2,0-0.4-0.2-0.5c-0.4-0.4-1-0.5-1-0.5s0,0.6,0.3,1c0.3,0.3,0.7,0.3,0.8,0.2c0,0,0.1-0.1,0.1-0.2c0,0.1,0,0.2,0,0.3
			c0,0.8,0.2,1.5,0.6,2.1c-0.1,0-0.2-0.1-0.3-0.1c-0.6-0.1-1.1,0.3-1.1,0.3s0.4,0.5,1,0.6c0.4,0,0.7-0.2,0.7-0.3
			c0.2,0.2,0.4,0.4,0.7,0.6c-0.1,0-0.2,0-0.3,0c-0.5,0.1-0.9,0.6-0.9,0.6s0.5,0.3,1.1,0.2c0.4-0.1,0.6-0.4,0.6-0.5c0,0,0,0,0,0
			c0.4,0.2,0.8,0.3,1.2,0.4c-0.3,0.1-0.6,0.2-0.8,0.4c0,0,0,0.1,0,0.1c0,0,0.3,0,0.3,0c0.2-0.3,0.7-0.4,0.9-0.5
			c0.2,0,0.7,0.1,0.9,0.5c0,0,0.3,0,0.3,0c0,0,0-0.1,0-0.1c-0.2-0.2-0.5-0.4-0.8-0.4c0.4-0.1,0.8-0.2,1.2-0.4c0,0,0,0,0,0
			c0,0.1,0.2,0.5,0.6,0.5c0.5,0.1,1.1-0.2,1.1-0.2s-0.4-0.5-0.9-0.6c-0.1,0-0.2,0-0.3,0c0.3-0.2,0.5-0.4,0.7-0.6
			c0.1,0.1,0.3,0.3,0.7,0.3c0.6-0.1,1-0.6,1-0.6s-0.5-0.4-1.1-0.3c-0.1,0-0.2,0-0.3,0.1c0.4-0.6,0.6-1.3,0.6-2.1
			C33.7,33.6,33.7,33.5,33.6,33.3c0,0.2,0,0.2,0.1,0.3c0.1,0.1,0.5,0.1,0.8-0.2c0.4-0.4,0.3-1,0.3-1s-0.6,0.1-1,0.5
			C33.7,33,33.6,33.1,33.6,33.3z"/>
		<path d="M33.9,34.2c-0.4,0.2-0.4,0.6-0.4,0.7c0.1,0.1,0.4,0.2,0.8,0c0.5-0.3,0.7-0.9,0.7-0.9S34.4,33.9,33.9,34.2z"/>
		<path d="M31.3,36.3c0.2,0.4,0.6,0.5,0.7,0.4c0.1,0,0.3-0.4,0.1-0.8c-0.3-0.5-0.8-0.7-0.8-0.7S31,35.8,31.3,36.3z"/>
		<path d="M33.3,31.5c-0.2,0.4,0,0.8,0.1,0.8c0.1,0,0.5-0.1,0.7-0.5c0.2-0.5,0-1.1,0-1.1S33.5,30.9,33.3,31.5z"/>
		<path d="M27.4,31.3c-0.3,0.1-0.4,0.5-0.4,0.6c0,0.1,0.3,0.3,0.7,0.1c0.4-0.2,0.7-0.7,0.7-0.7S27.8,31.1,27.4,31.3z"/>
		<path d="M26.7,33.9c-0.2,0.3-0.1,0.6,0,0.7c0.1,0,0.4,0,0.6-0.3c0.3-0.4,0.2-0.9,0.2-0.9S26.9,33.5,26.7,33.9z"/>
		<path d="M26.5,35c0.1-0.1,0-0.5-0.4-0.7c-0.5-0.3-1.1-0.1-1.1-0.1s0.2,0.6,0.7,0.9C26,35.2,26.4,35,26.5,35z"/>
		<path d="M28,36.7c0.1,0,0.5,0,0.7-0.4c0.3-0.5,0.1-1.1,0.1-1.1s-0.6,0.2-0.8,0.7C27.8,36.3,27.9,36.7,28,36.7z"/>
		<path d="M26.5,32.3c0.1,0,0.3-0.4,0.1-0.8c-0.2-0.5-0.8-0.8-0.8-0.8s-0.2,0.6,0,1.1C26,32.2,26.4,32.3,26.5,32.3z"/>
	</g>
</g>
<g id="Layer_4">
	<rect y="31" fill="none" width="60" height="15"/>
	<text transform="matrix(1 0 0 1 26.3936 37.3784)" font-family="'BrushScriptMT'" font-size="11">K</text>
</g>
</svg>
